<svg xmlns="http://www.w3.org/2000/svg" xmlns:xlink="http://www.w3.org/1999/xlink" viewBox="0 0 261.82 145.96"><defs><style>.cls-1{fill:none;}.cls-2,.cls-3{fill:#fff;}.cls-3{font-size:28.13px;font-family:Verdana-Bold, Verdana;font-weight:700;}.cls-4{fill:url(#linear-gradient);}.cls-5{fill:url(#linear-gradient-2);}.cls-6{fill:url(#linear-gradient-3);}.cls-7{fill:url(#linear-gradient-4);}.cls-8{fill:url(#linear-gradient-5);}.cls-9{fill:url(#linear-gradient-6);}.cls-10{fill:url(#linear-gradient-7);}.cls-11{fill:url(#linear-gradient-8);}.cls-12{fill:url(#linear-gradient-9);}.cls-13{fill:url(#linear-gradient-10);}.cls-14{fill:url(#linear-gradient-11);}.cls-15{fill:url(#linear-gradient-14);}</style><linearGradient id="linear-gradient" x1="-14.93" y1="158.78" x2="114.77" y2="-75.31" gradientUnits="userSpaceOnUse"><stop offset="0" stop-color="#5e52a3"/><stop offset="0.16" stop-color="#546db6"/><stop offset="0.36" stop-color="#4a88c9"/><stop offset="0.57" stop-color="#439bd6"/><stop offset="0.78" stop-color="#3fa6de"/><stop offset="1" stop-color="#3eaae1"/></linearGradient><linearGradient id="linear-gradient-2" x1="6.21" y1="170.5" x2="135.91" y2="-63.6" xlink:href="#linear-gradient"/><linearGradient id="linear-gradient-3" x1="-66.67" y1="130.12" x2="63.03" y2="-103.97" xlink:href="#linear-gradient"/><linearGradient id="linear-gradient-4" x1="-62.51" y1="132.42" x2="67.19" y2="-101.67" xlink:href="#linear-gradient"/><linearGradient id="linear-gradient-5" x1="-57.76" y1="135.06" x2="71.94" y2="-99.04" xlink:href="#linear-gradient"/><linearGradient id="linear-gradient-6" x1="-59.58" y1="134.04" x2="70.12" y2="-100.05" xlink:href="#linear-gradient"/><linearGradient id="linear-gradient-7" x1="-62.67" y1="132.34" x2="67.03" y2="-101.76" xlink:href="#linear-gradient"/><linearGradient id="linear-gradient-8" x1="-58.82" y1="134.46" x2="70.87" y2="-99.63" xlink:href="#linear-gradient"/><linearGradient id="linear-gradient-9" x1="-56.67" y1="135.66" x2="73.03" y2="-98.43" xlink:href="#linear-gradient"/><linearGradient id="linear-gradient-10" x1="-46.26" y1="141.42" x2="83.43" y2="-92.67" xlink:href="#linear-gradient"/><linearGradient id="linear-gradient-11" x1="-47.24" y1="140.88" x2="82.46" y2="-93.21" xlink:href="#linear-gradient"/><linearGradient id="linear-gradient-14" x1="-51.32" y1="138.62" x2="78.38" y2="-95.47" xlink:href="#linear-gradient"/></defs><g id="Layer_2" data-name="Layer 2"><g id="Layer_1-2" data-name="Layer 1"><rect class="cls-1" width="261.82" height="145.96"/><path class="cls-2" d="M123.06,128.65h-6.39v16.5H111.4v-16.5H105v-4h18Z"/><path class="cls-2" d="M141.6,145.15H126.8V124.7h14.8v4h-9.55v3.53h8.86v4h-8.86v5.05h9.55Z"/><path class="cls-2" d="M155.83,145.55a13,13,0,0,1-4.21-.67,9,9,0,0,1-3.32-2,9.13,9.13,0,0,1-2.15-3.32,13.06,13.06,0,0,1-.76-4.61,12.59,12.59,0,0,1,.73-4.41,9.53,9.53,0,0,1,2.11-3.39,8.86,8.86,0,0,1,3.31-2.1,12.21,12.21,0,0,1,4.3-.74,18,18,0,0,1,2.33.14,16.31,16.31,0,0,1,1.92.38,14.09,14.09,0,0,1,1.67.58l1.31.6v5h-.6c-.26-.22-.58-.48-1-.78a12.28,12.28,0,0,0-1.33-.89,9.28,9.28,0,0,0-1.63-.73,5.58,5.58,0,0,0-1.88-.31,6.46,6.46,0,0,0-2.12.35,5.14,5.14,0,0,0-1.85,1.16,5.63,5.63,0,0,0-1.32,2.07,8.74,8.74,0,0,0-.5,3.13,8.34,8.34,0,0,0,.54,3.21,5.7,5.7,0,0,0,1.37,2,4.85,4.85,0,0,0,1.87,1.08,6.63,6.63,0,0,0,3.94,0,8.23,8.23,0,0,0,1.73-.78,11.88,11.88,0,0,0,1.25-.85c.39-.3.7-.56,1-.78h.55v4.89l-1.47.65a13.41,13.41,0,0,1-1.47.52,18.49,18.49,0,0,1-1.88.44A15.17,15.17,0,0,1,155.83,145.55Z"/><path class="cls-2" d="M185.85,145.15h-5.28v-9h-7.78v9h-5.28V124.7h5.28v7.48h7.78V124.7h5.28Z"/><path class="cls-2" d="M211.53,134.93a10.66,10.66,0,0,1-2.81,7.77,11.84,11.84,0,0,1-15.48,0,12.22,12.22,0,0,1,0-15.57,11.89,11.89,0,0,1,15.47,0A10.64,10.64,0,0,1,211.53,134.93Zm-7,5.18a6,6,0,0,0,1.15-2.21,10.93,10.93,0,0,0,.37-3,10.27,10.27,0,0,0-.43-3.14,6.1,6.1,0,0,0-1.11-2.08,4.23,4.23,0,0,0-1.62-1.2,5.1,5.1,0,0,0-3.79,0,4.49,4.49,0,0,0-1.63,1.18,5.94,5.94,0,0,0-1.12,2.12,10.59,10.59,0,0,0-.43,3.14,10,10,0,0,0,.42,3.11,6.13,6.13,0,0,0,1.11,2.1,4.1,4.1,0,0,0,1.6,1.19,4.94,4.94,0,0,0,1.94.39,4.78,4.78,0,0,0,1.94-.4A4.15,4.15,0,0,0,204.53,140.11Z"/><path class="cls-2" d="M236,134.93a10.66,10.66,0,0,1-2.8,7.77,11.84,11.84,0,0,1-15.48,0,12.19,12.19,0,0,1,0-15.57,11.88,11.88,0,0,1,15.46,0A10.64,10.64,0,0,1,236,134.93Zm-7,5.18a6.18,6.18,0,0,0,1.14-2.21,10.93,10.93,0,0,0,.37-3,10,10,0,0,0-.43-3.14A5.93,5.93,0,0,0,229,129.7a4.28,4.28,0,0,0-1.61-1.2,5.13,5.13,0,0,0-3.8,0,4.38,4.38,0,0,0-1.62,1.18,5.79,5.79,0,0,0-1.12,2.12,10.26,10.26,0,0,0-.44,3.14,10,10,0,0,0,.42,3.11,6.13,6.13,0,0,0,1.11,2.1,4.13,4.13,0,0,0,1.61,1.19,4.9,4.9,0,0,0,1.93.39,4.75,4.75,0,0,0,1.94-.4A4.26,4.26,0,0,0,229,140.11Z"/><path class="cls-2" d="M259.2,145.15h-5.08l-8.68-14v14H240.6V124.7h6.31l7.45,11.71V124.7h4.84Z"/><text class="cls-3" transform="translate(102.76 115.74)">INFO</text><rect class="cls-4" x="2.62" y="43.68" width="36.22" height="101.47"/><path class="cls-5" d="M136.73.39V36H87.28V145.15h-35V36H33.39C40.24,32.1,44.73,25.57,44.73,18.2S40.3,4.3,33.43.39Z"/><rect class="cls-6" x="2.92" y="0.39" width="2.95" height="2.95"/><rect class="cls-7" x="5.87" y="3.34" width="4.04" height="4.04"/><rect class="cls-8" x="9.91" y="7.33" width="3.99" height="3.99"/><rect class="cls-9" x="11.91" y="0.39" width="3.3" height="3.3"/><rect class="cls-10" x="2.92" y="9.33" width="3.3" height="3.3"/><rect class="cls-11" x="7.25" y="11.48" width="2.66" height="2.66"/><rect class="cls-12" x="13.93" y="4.51" width="2.66" height="2.66"/><path class="cls-13" d="M38.54,18.2a17.81,17.81,0,0,1-35.62,0h7.31A10.5,10.5,0,1,0,20.73,7.7V.39A17.81,17.81,0,0,1,38.54,18.2Z"/><path class="cls-14" d="M20.73,14.6a3.61,3.61,0,1,0,3.61,3.6A3.6,3.6,0,0,0,20.73,14.6Zm0,5.26a1.66,1.66,0,1,1,1.65-1.66A1.66,1.66,0,0,1,20.73,19.86Z"/><path class="cls-14" d="M20.73,14.6a3.61,3.61,0,1,0,3.61,3.6A3.6,3.6,0,0,0,20.73,14.6Zm0,5.26a1.66,1.66,0,1,1,1.65-1.66A1.66,1.66,0,0,1,20.73,19.86Z"/><path class="cls-14" d="M20.73,14.6a3.61,3.61,0,1,0,3.61,3.6A3.6,3.6,0,0,0,20.73,14.6Zm0,5.26a1.66,1.66,0,1,1,1.65-1.66A1.66,1.66,0,0,1,20.73,19.86Z"/><rect class="cls-15" x="20.07" y="0.39" width="1.31" height="16.41"/></g></g></svg>