<svg xmlns="http://www.w3.org/2000/svg" xmlns:xlink="http://www.w3.org/1999/xlink" viewBox="0 0 282.76 158.84"><defs><style>.cls-1{fill:none;}.cls-2{font-size:26.72px;fill:#231f20;font-family:Verdana-Bold, Verdana;font-weight:700;}.cls-3{fill:#f1f2f2;}.cls-4{fill:url(#linear-gradient);}.cls-5{fill:url(#linear-gradient-2);}.cls-6{fill:url(#linear-gradient-3);}.cls-7{fill:url(#linear-gradient-4);}.cls-8{fill:url(#linear-gradient-5);}.cls-9{fill:url(#linear-gradient-6);}.cls-10{fill:url(#linear-gradient-7);}.cls-11{fill:url(#linear-gradient-8);}.cls-12{fill:url(#linear-gradient-9);}.cls-13{fill:url(#linear-gradient-10);}.cls-14{fill:url(#linear-gradient-11);}.cls-15{fill:url(#linear-gradient-14);}</style><linearGradient id="linear-gradient" x1="83.41" y1="132.5" x2="177.28" y2="-40.79" gradientUnits="userSpaceOnUse"><stop offset="0" stop-color="#5e52a3"/><stop offset="0.16" stop-color="#546db6"/><stop offset="0.36" stop-color="#4a88c9"/><stop offset="0.57" stop-color="#439bd6"/><stop offset="0.78" stop-color="#3fa6de"/><stop offset="1" stop-color="#3eaae1"/></linearGradient><linearGradient id="linear-gradient-2" x1="93.54" y1="137.99" x2="187.41" y2="-35.31" xlink:href="#linear-gradient"/><linearGradient id="linear-gradient-3" x1="59.27" y1="119.42" x2="153.14" y2="-53.87" xlink:href="#linear-gradient"/><linearGradient id="linear-gradient-4" x1="61.23" y1="120.48" x2="155.09" y2="-52.81" xlink:href="#linear-gradient"/><linearGradient id="linear-gradient-5" x1="63.47" y1="121.69" x2="157.33" y2="-51.6" xlink:href="#linear-gradient"/><linearGradient id="linear-gradient-6" x1="62.63" y1="121.24" x2="156.5" y2="-52.05" xlink:href="#linear-gradient"/><linearGradient id="linear-gradient-7" x1="61.13" y1="120.43" x2="154.99" y2="-52.86" xlink:href="#linear-gradient"/><linearGradient id="linear-gradient-8" x1="62.94" y1="121.41" x2="156.81" y2="-51.88" xlink:href="#linear-gradient"/><linearGradient id="linear-gradient-9" x1="64" y1="121.98" x2="157.86" y2="-51.31" xlink:href="#linear-gradient"/><linearGradient id="linear-gradient-10" x1="68.86" y1="124.62" x2="162.73" y2="-48.68" xlink:href="#linear-gradient"/><linearGradient id="linear-gradient-11" x1="68.42" y1="124.37" x2="162.28" y2="-48.92" xlink:href="#linear-gradient"/><linearGradient id="linear-gradient-14" x1="66.53" y1="123.35" x2="160.39" y2="-49.94" xlink:href="#linear-gradient"/></defs><g id="Layer_2" data-name="Layer 2"><g id="Layer_1-2" data-name="Layer 1"><rect class="cls-1" width="282.76" height="158.84"/><text class="cls-2" transform="translate(25.04 145.46)">INFO TECHOON</text><rect class="cls-3" x="88.91" y="5.28" width="104.94" height="104.94" rx="29.89"/><rect class="cls-4" x="109.88" y="44.08" width="17.02" height="47.67"/><path class="cls-5" d="M172.88,23.75V40.48H149.65V91.75H133.23V40.48h-8.89a9.79,9.79,0,0,0,5.32-8.36,9.75,9.75,0,0,0-5.3-8.37Z"/><rect class="cls-6" x="110.02" y="23.75" width="1.39" height="1.39"/><rect class="cls-7" x="111.41" y="25.13" width="1.9" height="1.9"/><rect class="cls-8" x="113.31" y="27.01" width="1.88" height="1.88"/><rect class="cls-9" x="114.25" y="23.75" width="1.55" height="1.55"/><rect class="cls-10" x="110.02" y="27.95" width="1.55" height="1.55"/><rect class="cls-11" x="112.06" y="28.96" width="1.25" height="1.25"/><rect class="cls-12" x="115.2" y="25.68" width="1.25" height="1.25"/><path class="cls-13" d="M126.76,32.11a8.37,8.37,0,0,1-16.74,0h3.44a4.93,4.93,0,1,0,4.93-4.93V23.75A8.36,8.36,0,0,1,126.76,32.11Z"/><path class="cls-14" d="M118.39,30.42a1.7,1.7,0,1,0,1.7,1.69A1.69,1.69,0,0,0,118.39,30.42Zm0,2.47a.78.78,0,1,1,.78-.78A.77.77,0,0,1,118.39,32.89Z"/><path class="cls-14" d="M118.39,30.42a1.7,1.7,0,1,0,1.7,1.69A1.69,1.69,0,0,0,118.39,30.42Zm0,2.47a.78.78,0,1,1,.78-.78A.77.77,0,0,1,118.39,32.89Z"/><path class="cls-14" d="M118.39,30.42a1.7,1.7,0,1,0,1.7,1.69A1.69,1.69,0,0,0,118.39,30.42Zm0,2.47a.78.78,0,1,1,.78-.78A.77.77,0,0,1,118.39,32.89Z"/><rect class="cls-15" x="118.08" y="23.75" width="0.62" height="7.71"/></g></g></svg>